<svg width="806" height="854" viewBox="0 0 806 854" fill="none" xmlns="http://www.w3.org/2000/svg">
<g clip-path="url(#clip0)">
<path d="M403.135 854.5C273.135 854.5 -6.10352e-05 245.5 -6.10352e-05 156.25C-6.10352e-05 67 74.1347 0 403.135 0C732.135 0 804.904 67 806.27 156.25C807.635 245.5 533.135 854.5 403.135 854.5Z" fill="#FFBE2F"/>
<path d="M403.135 834.5C394.161 834.5 380.299 828.856 361.398 812.882C343.107 797.424 322.805 774.606 301.298 745.945C258.361 688.724 212.616 610.909 170.581 529.654C128.609 448.52 90.6824 364.633 63.2983 295.627C49.6003 261.109 38.6264 230.531 31.112 206.016C23.3469 180.683 19.9999 164.048 19.9999 156.25C19.9999 136.785 24.007 119.859 33.554 104.989C43.1364 90.0639 59.3745 75.5385 86.6664 62.7723C142.123 36.8317 239.152 20 403.135 20C567.119 20 663.795 36.8326 719.071 62.7629C746.264 75.5194 762.498 90.0508 772.166 105.029C781.81 119.973 785.973 136.99 786.272 156.556C786.389 164.217 783.204 180.737 775.53 206.081C768.114 230.572 757.205 261.131 743.541 295.642C716.227 364.631 678.263 448.509 636.208 529.64C594.091 610.889 548.219 688.704 505.177 745.927C483.618 774.588 463.267 797.409 444.94 812.871C426.001 828.85 412.116 834.5 403.135 834.5Z" stroke="black" stroke-opacity="0.24" stroke-width="40"/>
<path d="M229.4 529C223.533 529 218.6 527 214.6 523C210.867 519 209 514.2 209 508.6C209 505.4 209.533 502.333 210.6 499.4L286.2 322.6L252.2 245.8C250.867 243.133 250.2 240.733 250.2 238.6C250.2 232.467 252.067 227.267 255.8 223C259.533 218.733 264.467 216.6 270.6 216.6C274.867 216.6 278.733 217.933 282.2 220.6C285.667 223 288.333 226.2 290.2 230.2L408.6 499.4C410.2 502.867 411 505.933 411 508.6C411 514.2 409 519 405 523C401 527 396.067 529 390.2 529C384.6 529 380.467 527.8 377.8 525.4C375.4 523 373.267 519.8 371.4 515.8L307.8 371.4L248.6 515.4C246.733 519.667 244.067 523 240.6 525.4C237.133 527.8 233.4 529 229.4 529Z" fill="#231161"/>
<path d="M505.2 529C496.667 529 490.4 524.6 486.4 515.8L369.2 247.8C365.467 238.733 365.067 231.267 368 225.4C370.933 219.533 376.533 216.6 384.8 216.6C394.133 216.6 400.533 220.733 404 229L504.8 470.6L607.2 229C609.333 224.2 611.733 221 614.4 219.4C617.333 217.533 621.2 216.6 626 216.6C634 216.6 639.467 219.533 642.4 225.4C645.6 231 645.6 237.267 642.4 244.2L524 515.8C520.533 524.6 514.267 529 505.2 529Z" fill="#231161"/>
</g>
<defs>
<clipPath id="clip0">
<rect width="806" height="854" fill="white"/>
</clipPath>
</defs>
</svg>
